<svg width="55" height="55" viewBox="0 0 55 55" fill="none" xmlns="http://www.w3.org/2000/svg">
<path d="M6.19671 39.8888L6.47297 40.165L6.19671 39.8888C5.85021 40.2353 5.38026 40.4299 4.89023 40.4299C4.40021 40.4299 3.93025 40.2353 3.58375 39.8888L3.30174 40.1708L3.58375 39.8888C3.23725 39.5423 3.04259 39.0723 3.04259 38.5823V34.087C3.04259 33.597 3.23725 33.127 3.58375 32.7805C3.93025 32.434 4.40021 32.2394 4.89023 32.2394C5.38025 32.2394 5.85021 32.434 6.19671 32.7805C6.54321 33.127 6.73787 33.597 6.73787 34.087V38.5823C6.73787 39.0723 6.54321 39.5423 6.19671 39.8888ZM29.2142 16.1059V16.5059H29.6142H38.6048C40.287 16.5059 41.9004 17.1742 43.0899 18.3637C44.2794 19.5532 44.9477 21.1666 44.9477 22.8488V43.0776C44.9477 44.7598 44.2794 46.3731 43.0899 47.5627C41.9004 48.7522 40.287 49.4205 38.6048 49.4205H16.1284C14.4462 49.4205 12.8328 48.7522 11.6433 47.5627C10.4538 46.3731 9.78551 44.7598 9.78551 43.0776V22.8488C9.78551 21.1666 10.4538 19.5532 11.6433 18.3637C12.8328 17.1742 14.4462 16.5059 16.1284 16.5059H25.119H25.519V16.1059V13.2289V12.998L25.319 12.8825C24.7 12.5252 24.1853 12.0121 23.8261 11.3942C23.4671 10.7767 23.2759 10.0761 23.2713 9.36184C23.2716 8.27612 23.7031 7.23494 24.4708 6.4672C25.2388 5.69919 26.2805 5.26772 27.3666 5.26772C28.4527 5.26772 29.4944 5.69919 30.2624 6.4672C31.0301 7.23494 31.4616 8.27612 31.4619 9.36184C31.4573 10.0761 31.2661 10.7767 30.9071 11.3942C30.5479 12.0121 30.0332 12.5252 29.4142 12.8825L29.2142 12.998V13.2289V16.1059ZM31.6206 20.6982L31.7449 20.2012H31.2325H23.5007H22.9884L23.1126 20.6982L24.2364 25.1935L24.3122 25.4965H24.6245H30.1087H30.421L30.4968 25.1935L31.6206 20.6982ZM19.2594 20.5076L19.1857 20.2012H18.8705H16.1284C15.4262 20.2012 14.7528 20.4801 14.2563 20.9767C13.7597 21.4732 13.4808 22.1466 13.4808 22.8488V43.0776C13.4808 43.7798 13.7597 44.4532 14.2563 44.9497C14.7528 45.4463 15.4262 45.7252 16.1284 45.7252H38.6048C39.307 45.7252 39.9804 45.4463 40.477 44.9497C40.9735 44.4532 41.2524 43.7798 41.2524 43.0776V22.8488C41.2524 22.1466 40.9735 21.4732 40.477 20.9767C39.9804 20.4801 39.307 20.2012 38.6048 20.2012H35.8627H35.5475L35.4738 20.5076L33.7212 27.7877C33.7211 27.788 33.721 27.7883 33.7209 27.7887C33.6196 28.1982 33.3812 28.5608 33.0453 28.8161C32.7091 29.0716 32.2956 29.2042 31.8735 29.1919L31.8735 29.1917H31.8619H22.8713V29.1916L22.8597 29.1919C22.4376 29.2042 22.0241 29.0716 21.6879 28.8161C21.352 28.5608 21.1136 28.1982 21.0123 27.7887C21.0122 27.7883 21.0121 27.788 21.012 27.7877L19.2594 20.5076ZM19.5972 34.7984C19.901 34.5954 20.2583 34.487 20.6237 34.487C21.1137 34.487 21.5837 34.6817 21.9302 35.0282C22.2767 35.3747 22.4713 35.8446 22.4713 36.3346C22.4713 36.7001 22.363 37.0573 22.1599 37.3611C21.9569 37.665 21.6684 37.9018 21.3308 38.0416C20.9931 38.1815 20.6216 38.2181 20.2632 38.1468C19.9048 38.0755 19.5756 37.8995 19.3172 37.6411C19.0588 37.3827 18.8828 37.0535 18.8116 36.6951C18.7403 36.3367 18.7769 35.9652 18.9167 35.6276C19.0565 35.29 19.2934 35.0014 19.5972 34.7984ZM48.5365 32.7805C48.883 32.434 49.353 32.2394 49.843 32.2394C50.333 32.2394 50.803 32.434 51.1495 32.7805C51.496 33.127 51.6906 33.597 51.6906 34.087V38.5823C51.6906 39.0723 51.496 39.5423 51.1495 39.8888C50.803 40.2353 50.333 40.4299 49.843 40.4299C49.353 40.4299 48.883 40.2353 48.5365 39.8888C48.19 39.5423 47.9953 39.0723 47.9953 38.5823V34.087C47.9953 33.597 48.19 33.127 48.5365 32.7805ZM33.083 34.7984C33.3869 34.5954 33.7441 34.487 34.1095 34.487C34.5995 34.487 35.0695 34.6817 35.416 35.0282C35.7625 35.3747 35.9571 35.8446 35.9571 36.3346C35.9571 36.7001 35.8488 37.0573 35.6458 37.3611C35.4427 37.665 35.1542 37.9018 34.8166 38.0416C34.479 38.1815 34.1075 38.2181 33.7491 38.1468C33.3907 38.0755 33.0614 37.8995 32.803 37.6411C32.5446 37.3827 32.3687 37.0535 32.2974 36.6951C32.2261 36.3367 32.2627 35.9652 32.4025 35.6276C32.5424 35.29 32.7792 35.0014 33.083 34.7984Z" fill="#333333" stroke="white" stroke-width="0.8"/>
</svg>
